<svg version="1.1" xmlns="http://www.w3.org/2000/svg" xmlns:xlink="http://www.w3.org/1999/xlink" x="0px" y="0px" viewBox="0 0 257.383 53.633" enable-background="new 0 0 257.383 53.633" xml:space="preserve" style="fill: rgb(0, 0, 0);">
<g>
	<g id="__id6_smnag0s98"><path d="M178.668,11.055" style="fill: rgb(255, 171, 213);"></path></g>
	<g id="__id7_smnag0s98"><path d="M209.506,9.523c3.725-0.187,7.431-0.472,11.148-0.699c7.452-0.41,14.828-1.091,22.238-1.659   c-0.361,1.9-0.702,3.876,0.371,5.511c0,0,1.147-0.148,2.566-0.423c1.422-0.257,3.129-0.565,4.267-0.771   c9.629,2.805,8.303,9.404,4.077,14.716c-1.099,1.122-2.34,2.388-3.751,3.682c-1.188,0.026-2.377,0.052-3.553,0.078   c-5.355,0.146-10.631,0.404-15.953,0.851c-5.29,0.322-10.6,0.752-15.981,1.23c-10.744,0.835-13.926,1.779-25.54,1.925   c-16.294-0.256,16.18-1.267,0,0c19.213-0.674-12.021,1.38,7.525,0.313c4.893-0.245,1.938-0.49,6.799-0.733   c4.873-0.177,9.724-0.354,14.546-0.529c4.841-0.175,9.633-0.194,14.437-0.27c4.817-0.113,9.577-0.078,14.358-0.032   c-3.602,2.706-7.967,4.998-13.26,5.764c-12.621,0.826-25.067,1.64-37.407,2.447c-0.057-0.905-9.646,0.744-18.126,1.287   c-8.475,0.483-16.824-1.181-25.23-0.986c-16.818,0.444-50.299,5.65-50.531,6.249c-0.085,0.008-0.167,0.015-0.246,0.022   c0.079-0.007,0.161-0.014,0.246-0.022c-0.209,0.526-0.05,0.911,2.108,0.76c-2.158,0.151-2.317-0.233-2.108-0.76   c34.101-3.282,58.195-4.84,92.483-6.446c-26.592,1.776-44.746,3.87-70.902,6.039c-26.151,2.156-52.451,4.339-79.576,6.001   c-2.309,0.141-6.937,0.422-9.25,0.563c-9.348-2.144-18.639-2.502-27.868-1.975c2.148-4.629-7.411-13.085,11.137-12.354   c-0.032-0.898-0.096-2.697-0.128-3.595c-9.338-1.709-15.765-5.629-17.813-9.664c-0.942-2.006-0.824-4.094,0.867-5.951   c1.758-1.87,4.691-3.498,9.288-4.663c20.627-4.786,48.427-2.865,73.699-6.369c18.401-2.129,36.778-4.345,55.259-3.976   c25.441,0.734,45.136-2.505,70.504-1.699c4.598-0.075,10.83-1.292,16.511-2.193c5.653-0.962,10.698-1.735,13.09-0.702   c3.363,0.822,3.686,2.704,3.392,4.896c-7.488,0.9-14.933,1.93-22.444,2.643c-3.747,0.379-7.476,0.809-11.219,1.131   c-3.743,0.309-7.477,0.616-11.2,0.923" style="fill: rgb(255, 171, 213);"></path></g>
</g>
</svg>