<?xml version="1.0" encoding="UTF-8"?><svg xmlns="http://www.w3.org/2000/svg" xmlns:xlink="http://www.w3.org/1999/xlink" height="501.9" preserveAspectRatio="xMidYMid meet" version="1.1" viewBox="-2.4 0.0 391.0 501.9" width="391.0" zoomAndPan="magnify">
 <defs>
  <clipPath id="clip1">
   <path d="m0 0h388.63v383h-388.63z"/>
  </clipPath>
 </defs>
 <g id="surface1">
  <g id="change1_1"><path d="m277.79 329.25c-0.02 0.01 0.02-0.01 0 0-2.81 1.75-5.51 5.94-3.91 8.83 1.39 2.55 5.61 5.55 6.99 6.32 4.33 2.42 8.06 5.69 11.21 9.51 5.81 7.04 8.69 16.08 6.13 25.07-2.27 8.04-8.65 15.56-16.42 20.9 3.12 19.72 3.25 39.86-0.07 59.61-3.42 20.3-15.05 38.88-37.7 39.61-7.57 0.25-17.57-1.21-19.88-9.78-1.73-6.46 1.5-12.79 6.46-16.87-4.2-4.54-12.65-5.87-18.08-6.11-6.06-0.27-14.27 0.14-19.32 4.28 4.53 2.64 9.02 5.63 10.58 10.59 2.9 9.25-6.23 17.06-14.49 18.29-16.2 2.43-32.36-4.14-42.08-17.18-9.73-13.04-13.68-29.89-15.95-45.71-1.3-9.01-2.21-18.18-2.64-27.36-15.93-3.51-26.84-26.98-24.65-41.47 1.42-9.4 8.89-17.2 15.65-23.37 4.72-4.31 9.92-8.51 15.66-11.54 3.04-1.6 3.17-5.92 0.17-7.61-2.35-1.34-4.65-2.79-6.86-4.37-16.1-11.5-30.289-26.38-33.426-46.6-1.879-12.1-0.508-24.72 0.535-36.85 0.672-7.81 1.778-15.58 3.688-23.16-5.149-0.68-10.117-4.07-13.453-8.52-5.543-7.4-4.493-18.8-1.43-27.04 3.004-8.09 10.012-14.26 19.066-11.98 5.33 1.34 9.48 5.22 12.3 9.88 5.55-8.51 12.53-15.82 21.53-19.17 0.7-0.26 1.35-0.35 1.94-0.31 7.19-4.85 15.16-8.27 23.97-9.75 12.4-2.08 24.96-0.78 37.35 0.68 15.65 1.86 31.15 4.84 46.18 9.65 8.11 2.6 16.43 5.55 24.21 9.39 6.97-12.68 29.86-16.93 39.83-6.47 9.58 10.04 1.77 24.91-8.38 32.97 17.91 24.71 23.14 58.49 12.92 87.5-7.13 20.23-19.22 36.59-37.63 48.14" fill="#cc6e37"/></g>
  <g id="change2_1"><path d="m185.87 335.98c-1.95-2.35-11.35-11.96-5.58-14.77 4.4-2.13 11.32 8.85 12.85 11.54 1.82 3.19 3.22 6.74 4.27 10.37-1.95-0.27-4.02-0.61-6.14-1-1.87-1.86-3.58-3.95-5.4-6.14zm33.44-9.97c2.22-3 4.74-5.8 7.72-8 1.41-0.21 2.67-0.45 3.92-0.03 2.27 2.57 0.21 6.56-2.45 10.63-2.69 2.9-5.88 5.45-8.71 7.94-2.59 2.28-5.32 4.44-7.99 6.65-0.94 0.12-1.86 0.23-2.75 0.31 0.94-2.21 1.99-4.35 2.9-6.13 2.01-3.95 4.73-7.8 7.36-11.37zm11.28 78.67c-7.18-1.77-16.54-5.05-16.98-12.41-0.53-8.82 11.52-12.69 19.74-14.4 5.23-1.08 10.63-1.98 16.1-2.62-2.52-20.11-7.28-38.53-7.28-38.53s-3.43 0.95-8.37 2.16c2.42-2.43 4.52-5.14 5.93-8.28 0.14-0.32 0.27-0.65 0.4-0.98 3.3-4.21 5.1-9.12 2.34-14.55-5.79-11.41-18.47-2.27-24.12 4.25-3.86 4.46-7.41 9.65-10.18 14.84-1.97 3.7-4.45 5.5-4.99 9.54-0.07-0.01-0.15-0.01-0.23-0.02-1.06-8.39-3.65-12.98-9.09-20.04-3.74-4.87-11.55-11.82-17.89-6.89-0.96 0.75-1.68 1.59-2.19 2.5-3.67 4.85-2.14 14.32-0.12 19.07-3.83-0.93-6.37-1.6-6.37-1.6s-5.46 24.37-7.53 47.33c3.94 0.02 7.9 0.1 11.88 0.36 7.16 0.48 15.57 3.86 15.66 12.27 0.08 7.84-7.36 13.43-14.45 14.65-4.22 0.73-8.73 0.46-13.05 0.29 0.59 3.57 1.51 6.54 2.86 8.66 9.1 14.26 26.02 17.5 39.65 18.65 9.6 0.82 18.93-1.91 28.01-5.66 7.77-3.2 15.62-8.34 18.67-18.98 0.72-2.49 1.21-5.29 1.53-8.3-6.67 0.67-13.57 0.24-19.93-1.31zm-125.89-226.4c-1.19-1.09-3.54-0.87-4.981-0.49-1.938 0.5-3.117 1.5-4.047 2.8-0.285 0.3-0.563 0.62-0.832 0.96-0.11-0.03-0.231-0.02-0.32 0.09-0.348 0.42-1.235 1.71-1.875 3.04-0.43 0.7-0.77 1.43-0.942 2.16-0.058 0.26 0.074 0.48 0.266 0.61 0.074 0.35 0.273 0.62 0.644 0.76 1.532 0.56 3.852-5.07 4.524-6.24 0.32-0.55 0.695-1.08 1.117-1.56 0.105 0.05 0.234 0.07 0.379-0.01 1.527-0.85 3.257-1.04 4.777-0.06 0.22 0.14 0.41 0.3 0.59 0.47-0.01 0.01-0.03 0.02-0.04 0.03-2.57 2-4.632 5.07-5.894 8.02-1.468 3.44-2.101 7.41-1.375 11.11 0.528 2.67 2.438 6.75 5.109 7.85 0.39 0.15 0.63-0.27 0.52-0.59 0.06-0.06 0.09-0.12 0.13-0.21 0.66-1.82 1.03-3.75 1.64-5.59 0.63-1.88 1.55-3.61 2.36-5.41 1.51-3.35 2.62-6.84 5.22-9.56 0.14-0.14 0.24-0.39 0.15-0.58-1.28-3.18-3.81-6.33-7.12-7.6zm186.6-13.59c0.16 0.02 0.28-0.03 0.36-0.12 0.56 0.31 1.09 0.68 1.58 1.09 1.03 0.86 5.13 5.37 6.38 4.32 0.3-0.25 0.4-0.57 0.35-0.93 0.13-0.19 0.18-0.44 0.04-0.66-0.42-0.64-0.98-1.21-1.62-1.71-1.06-1.04-2.33-1.95-2.8-2.23-0.12-0.07-0.24-0.04-0.33 0.03-0.37-0.23-0.74-0.43-1.12-0.62-1.31-0.91-2.76-1.45-4.75-1.26-1.48 0.13-3.77 0.73-4.52 2.16-2.68 2.32-3.99 6.15-4.11 9.57-0.01 0.21 0.17 0.41 0.35 0.5 3.36 1.66 5.59 4.57 8.15 7.21 1.38 1.42 2.83 2.72 4.06 4.28 1.2 1.53 2.21 3.21 3.46 4.7 0.05 0.07 0.11 0.12 0.18 0.15 0.01 0.34 0.38 0.65 0.68 0.38 2.15-1.94 2.56-6.43 2.15-9.12-0.58-3.72-2.52-7.25-5.08-9.98-2.19-2.34-5.17-4.52-8.27-5.54-0.01 0-0.03 0-0.05-0.01 0.11-0.22 0.24-0.43 0.4-0.65 1.09-1.43 2.78-1.84 4.51-1.56zm-112.61 79.62c11.79-19.57 34.27-16.51 38.42-15.95 3.5 0.48 6.49 2.5 9.07 4.82 4.69 4.23 9.68 9.82 11.61 15.95 2.79 8.87-2.43 21.63-11.28 24.96-5.87 2.21-12.7 1.71-18.83 1.45-6.18-0.25-12.76-0.9-18.19-4.11-8.19-4.86-16.44-17.77-10.8-27.12zm198.14-61.19c-0.89 3.09-1.98 10.4-2.61 10.88-4.26 3.35-9.21 6.7-14.88 5.12-4.36-1.21-7.72-4.82-8.44-9.32-0.54-3.35 0.11-7.92 4.17-8.37 2.24-0.26 4.32 1.27 6.36 1.91 4.75 1.49 9.57 0.74 13.91-1.55 0.88-0.47 1.73 0.48 1.49 1.33zm-332.02-142.62c0.136 3.215 1.41 10.488 0.972 11.148-2.984 4.52-6.621 9.266-12.5 9.567-4.511 0.23-8.843-2.137-10.949-6.168-1.574-3.02-2.406-7.555 1.297-9.27 2.047-0.949 4.508-0.168 6.645-0.203 4.972-0.086 9.312-2.324 12.699-5.871 0.691-0.723 1.797-0.094 1.836 0.797" fill="#f8db7e"/></g>
  <g clip-path="url(#clip1)" id="change3_1">
   <path d="m215.4 350.88s-4.36 1.21-4.54 2.12c-0.19 0.91 2.06 3.75 3.52 6.33 0.46 0.83 1.34 2.04 2.31 3.31l12.81-0.27h0.02l0.32-0.01c0.76-0.01 1.37-0.63 1.37-1.39v-9.38c0-0.78-0.64-1.41-1.42-1.39l-13.5 0.28c-0.25 0.09-0.5 0.19-0.75 0.27zm-28.88 2.26c-1.71-0.71-2.4-1.46-2.68-1.93-0.02-0.01-0.04-0.03-0.05-0.04l-10.3 0.22c-0.76 0.01-1.37 0.63-1.37 1.39v9.38c0 0.78 0.65 1.41 1.43 1.39l10.66-0.22c2.49-3.23 6.12-8.14 6.1-8.56-0.02-0.58-0.97-0.44-3.79-1.63zm-113.78-233.24c-5.293-2.58-10.773-0.19-15.57 2.32-0.703 0.37-3.11 7.35-4.543 10.23-0.399 0.8 0.266 1.88 1.219 1.59 4.683-1.47 9.562-1.33 13.957 1 1.883 1.01 3.66 2.88 5.91 3.04 4.07 0.29 5.539-4.08 5.621-7.48 0.109-4.55-2.535-8.72-6.594-10.7zm301.53 174.81c-5.98-0.9-13.09 7.49-13.09 7.49s2.55 2.53 8.46 5 7.61 13.42 8.61 14.6c1.01 1.17 2.81-0.23 2.81-0.23l7.5-7.98c1.21-7.77-14.29-18.88-14.29-18.88zm-350.56-100.13c-5.18-1.62-10.359-3.24-15.539-4.86-0.3594-0.11-0.6641-0.06-0.9297 0.06-0.4531-0.53-1.2891-0.82-2.0235-0.31-3.9218 2.72-7.6132 7.33-3.2304 11.48 2.6953 2.55 7.2226 3.84 10.512 5.37 3.082 1.44 6.891 4.15 10.469 3.39 3.73-0.79 8.582-6.96 7.433-10.93-0.828-2.87-4.23-3.42-6.691-4.2zm309.34 163.63c-0.59-0.53-7.97-0.4-11.17-0.76-0.88-0.09-1.68 0.9-1.07 1.69 2.98 3.9 4.53 8.53 3.84 13.46-0.29 2.11-1.44 4.43-0.82 6.6 1.12 3.92 5.73 3.79 8.96 2.7 4.31-1.45 7.31-5.37 7.78-9.86 0.61-5.86-3.52-10.18-7.52-13.83zm-40.66-280.59c-4.34 4.711-7.6 6.227-7.6 6.227s-5.44-9.555-2.54-14.864c0 0 15.76-10.742 22.64-6.937l4.92 9.777s0.69 2.176-0.76 2.719c-1.44 0.543-12.31-1.629-16.66 3.078zm-29.55 86.739c0 0.07-0.01 0.15-0.02 0.22-0.02 0.13-0.03 0.26-0.07 0.38l-0.03 0.09c-0.06 0.19-0.13 0.38-0.23 0.57-0.1 0.81-0.56 1.58-1.33 1.91-41.87 22.29-96.86 13.48-110.82 10.08-6.68-1.62-16.64-3.79-18.3-11.62-0.17-0.77 0.08-1.41 0.52-1.88-0.2-0.68-0.17-1.47 0.26-2.31 11.31-22.14 24.61-43.19 35.83-65.378 9.5-18.789 17.7-38.18 24.82-57.981 1.2-2.293 2.31-4.648 3.28-7.019 0.33-0.809-5.81-1.25-5.81-1.25s-3.76 0.418-5.67 0.445c-3.45 0.055-7.39-0.84-9.3-3.906-0.82-1.32-0.81-3.563 0.75-4.426 3.25-1.785 6.64-1.465 9.93 0.203 2.1 1.071 3.7 2.301 6 2.817 0.01-0.094 0.04-0.188 0.06-0.278-1.7-1.672-3.19-3.617-4.82-5.297-2.46-2.527-5.42-4.046-7.98-6.375-2.71-2.457-0.61-6.5972 2.89-6.2534 4.01 0.3945 6.51 4.0434 8.87 6.9534 1.26 1.547 1.9 3.297 2.86 5.007 0.36 0.645 0.82 1.2 1.31 1.735 0.01-1.43 0.03-2.863-0.04-4.317-0.21-4.242-2.51-7.8902-5.12-11.101-2.67-3.297 2.08-6.8868 5.12-4.7188 4.68 3.332 5.65 9.9918 5.57 16.465 0.79-1.074 1.58-2.113 2.37-3.094 1.62-2.031 3.21-4.0701 4.82-6.1013 0.29-0.3633 0.6-0.6758 0.91-0.9844 0.17-0.2851 0.36-0.5586 0.55-0.8047 0.32-0.4023 0.7-0.7344 1.07-1.082 0.24-0.2227 0.48-0.4453 0.71-0.6758 0.25-0.2539 0.75-1.0586 0.13 0.0039 1.19-2.0429 3.49-3.0234 5.63-1.9765 1.71 0.625 2.92 2.496 2.32 4.5078-0.12 0.6992-0.39 1.3828-0.87 1.9804-0.5 0.6289-1.07 1.0782-1.67 1.4806-2.79 2.668-6.47 4.613-9.11 7.414-0.98 1.043-1.82 2.203-2.62 3.398 2.08-0.843 4.14-1.711 6.06-2.886 3.48-2.137 6.54-5.473 10.85-3.864 4.41 1.645 2.05 8.93-2.45 7.852-2.96-0.707-7.02 1.16-9.71 2.32-0.57 0.246-1.14 0.512-1.7 0.785 1.81 0.211 3.62 0.422 5.41 0.325 3.27-0.172 7.12-0.946 10.15 0.718 4.33 2.387 0.93 9.446-3.24 6.93-1.9-1.144-4.97-1.473-7.14-2.039-2.52-0.66-4.98-0.762-7.45-0.727 0.16 0.407 0.24 0.86 0.2 1.368-0.41 6.339 4.79 14.457 7.03 20.257 3.77 9.727 7.36 19.52 11.25 29.2 3.99 9.922 8.31 19.73 11.73 29.87 0.45 1.32 0.92 2.68 1.37 4.06 3.21 4.98 6.46 9.96 9.03 15.38 4.95 10.44 7.51 22.4 15.04 31.42 0.6 0.73 0.83 1.49 0.8 2.2" fill="#9bd98b"/>
  </g>
  <g id="change4_1"><path d="m216.72 362.68c1.23 1.61 2.61 3.3 3.53 4.41 0.38 0.46 0.02 1.14-0.57 1.08-0.46-0.04-0.98-0.09-1.52-0.14-1.95-0.18-4.15-0.37-4.54-0.32-0.7 0.08-0.78 0.79-0.78 2.67v0.14c0 1.85 0.13 4.12-0.32 4.12-0.02 0-0.04-0.01-0.06-0.01-1.31-0.2-2.76-6.68-3.84-8.55-0.29-0.51-0.97-1.7-1.79-3.15h-0.13l1.7 37.7 10.76-0.31c-3.06-1.93-5.3-4.5-5.52-8.01-0.44-7.26 7.65-11.17 15.1-13.27l0.78-16.67h-0.02zm-21.72 0.53h-0.03c-2.23 3.2-6.37 8.77-8.38 10.19-0.42 0.3-0.75 0.42-0.94 0.29-0.24-0.17-0.08-1.54 0.16-2.93 0.27-1.54 0.63-3.12 0.63-3.12s-1.65 0.69-2.77 0.82c-0.24 0.02-0.54 0.09-0.86 0.16-1.22 0.27-2.82 0.74-2.95 0.36-0.17-0.48 1.12-1.75 2.23-2.98 0.3-0.34 1.06-1.3 2-2.52l-9.88 0.24 2.24 21.49c5.66 1.45 10.81 4.93 10.88 11.5 0.02 1.62-0.3 3.14-0.85 4.55l9.82-0.28zm157.99-281.97c5.88-0.301 9.52-5.043 12.5-9.566 0.44-0.66-0.83-7.934-0.97-11.145-0.04-0.89-1.15-1.523-1.84-0.801-3.38 3.551-7.72 5.79-12.7 5.875-2.13 0.036-4.6-0.75-6.64 0.2-3.71 1.718-2.87 6.25-1.3 9.269 2.11 4.035 6.44 6.403 10.95 6.168zm-151.14 65.958c-12.74 0.55-44.03-2.3-59.14-3.79-2.56 4.58-5.06 9.19-7.5 13.83 21.84 3.65 81.62 11.5 121.36-3.56-2.31-4.56-4.09-9.42-5.93-14.23-14.55 2.85-38.69 7.32-48.79 7.75zm-137.88 134.19c-7.825-0.78-18.078 15.3-18.078 15.3-0.571 6.02 8.187 12.66 8.187 12.66s2.398-2.67 4.539-8.72c2.141-6.04 12.988-8.32 14.106-9.39 1.117-1.07-0.379-2.79-0.379-2.79zm-46.379 52.57c-5.282-3.63-4.68-14.7-5.426-16.06-0.742-1.35-2.7969-0.35-2.7969-0.35l-8.9766 6.26c-2.7812 7.35 10.098 21.42 10.098 21.42 5.668 2.11 14.352-4.63 14.352-4.63s-1.969-3.01-7.25-6.64zm196.03-281.73c-1.01-2.601-2.6-5.668-4.02-8.832l-19.26 3.528c-1.84 4.847-3.73 9.672-5.7 14.465 8.82-0.457 21.09-1.547 30.9-4.164-0.64-1.665-1.27-3.332-1.92-4.997zm11.25 29.2c-0.67-1.657-1.31-3.321-1.96-4.981l-47.82 6.711c-2.08 4.449-4.22 8.871-6.44 13.262-0.03 0.074-0.08 0.148-0.11 0.226 16.11-1.003 43.16-2.992 60.14-5.894-1.28-3.106-2.56-6.207-3.81-9.324zm145.17 70.48c5.66 2.11 14.34-4.63 14.34-4.63s-1.96-3.01-7.24-6.64-4.69-14.7-5.43-16.05c-0.75-1.36-2.8-0.36-2.8-0.36l-8.98 6.26c-2.78 7.36 10.11 21.42 10.11 21.42zm-217.85-25.29c2.3-4.04 4.59-8.1 6.85-12.16 13.32 0.85 33.18 1.89 42.06 1.15 7.11-0.58 22.74-4.11 34.58-6.96 0.3 0.88 0.62 1.76 0.92 2.65 0.45 1.32 0.92 2.68 1.37 4.06 2.09 3.25 4.19 6.49 6.12 9.85-25.23 6.26-70.11 3.36-91.9 1.41" fill="#f58992"/></g>
  <g id="change5_1"><path d="m237.4 457.17c0-0.79-1.21-0.79-1.22 0-0.05 5.56 0.03 12.21-5.58 15.04-0.74 0.38-0.22 1.52 0.55 1.32 6.66-1.73 6.29-11.08 6.25-16.36zm-43.74 13.45c-2.69-0.76-3.6-4.34-4.94-6.51-1.95-3.14-3.33-6.42-4.88-9.76-0.35-0.74-1.41-0.1-1.09 0.63 1.82 4.09 3.69 7.95 5.73 11.93 1.09 2.14 2.26 4.94 4.98 5.17 0.85 0.07 0.99-1.24 0.2-1.46zm70.76-70.42c-2.47 1.42-4.77 2.69-7.53 3.52-2.46 0.73-5.05 1.07-7.46 1.91-0.72 0.26-0.67 1.49 0.19 1.43 4.97-0.37 12.16-1.92 15.7-5.7 0.56-0.61-0.16-1.59-0.9-1.16zm-103.13 10.26c-3.07 0.17-6.15 0.15-9.22 0.36-2.93 0.2-5.86 0.62-8.78 0.08-0.78-0.15-1.12 1.05-0.33 1.2 2.87 0.57 5.65 0.43 8.56 0.24 3.32-0.21 6.66 0 9.96-0.49 0.79-0.12 0.6-1.44-0.19-1.39zm19.36-23.32c-3.27-3.15-9.54-3.39-13.82-3.46-2.96-0.05-5.92 0.15-8.87 0.38 0.57-2.32-0.51-4.63-1.24-6.89-0.24-0.76-1.42-0.44-1.19 0.33 0.66 2.25 1.41 4.38 0.87 6.69-3.87 0.32-7.74 0.64-11.61 0.51-0.82-0.03-0.82 1.24 0 1.27 3.77 0.16 7.82-0.2 11.93-0.51 0.21 0.09 0.44 0.08 0.63-0.04 7.82-0.58 15.81-0.89 22.4 2.88 0.72 0.41 1.51-0.56 0.9-1.16zm85.62-15.18c-3.17 0.52-6.33 1.08-9.48 1.65 0.46-1.5 0.75-3.08 0.62-4.61-0.07-0.82-1.37-1.14-1.54-0.21-0.32 1.7-0.45 3.42-0.78 5.13-5.54 1-11.06 2.04-16.61 3.02-7.7 1.36-16.75 1.52-22.12 7.95-0.51 0.61 0.31 1.47 0.87 0.88 6.26-6.54 18.12-6.58 26.59-8.01 3.17-0.54 6.24-1.47 9.39-2.09 0.65-0.12 1.29-0.23 1.93-0.33 0.31 0.25 0.82 0.23 1.08-0.16 3.5-0.5 7.03-0.81 10.43-1.81 0.92-0.27 0.53-1.56-0.38-1.41zm-90.76-138.67c2.74 0.83 4.55-1.49 4.38-4.05-0.18-2.56-1.66-5.02-3.89-6.29-1.84-1.04-4.43-0.79-4.89 1.44-0.54 0.88-0.55 2.16-0.22 3.31 0.68 2.3 2.19 4.85 4.62 5.59zm47.65 19.8c0.02 2.78-0.53 5.18-2.5 7.25-1.82 1.9-5.94 3.94-8.1 1.46-1.52-1.75-1.42-5.42-3.4-6.82 2.37-0.39 4.32-2.75 5.56-4.59 1.55-2.3 2.27-4.87 1.08-7.48-1.58-3.46-4.5-4.02-7.59-3.67-0.39-0.06-0.79-0.1-1.2-0.09-1.6 0.04-3.23 0.62-4.65 1.33-1.93 0.97-3.56 2.37-3.48 4.68 0.1 2.83 2.48 5.02 4.37 6.82 1.23 1.17 2.63 2.57 4.33 2.97-0.63 3.61-1.09 9.67-5.72 6.75-3.07-1.93-4.54-5.46-7.16-7.83-0.58-0.52-1.37 0.22-1 0.85 2 3.42 5.46 9.09 9.85 9.55 3.86 0.4 4.95-3.37 5.36-6.83 0.26 0.5 0.5 1.02 0.71 1.6 0.33 0.96 0.59 1.95 1.08 2.84 1.16 2.09 3.1 2.84 5.44 2.55 5.1-0.64 9.91-6.39 8.29-11.59-0.23-0.72-1.27-0.46-1.27 0.25zm19.42-27.11c0.34 1.17 0.35 2.48 0.03 3.46-0.5 1.51-3.23 5.45-5.06 3.66-0.51-0.1-1.03-0.36-1.53-0.86-2.51-2.53-1.01-10.82 3.43-10.1 1.55 0.25 2.46 1.43 2.86 2.9 0.12 0.29 0.21 0.6 0.27 0.94" fill="#3c3d3e"/></g>
 </g>
</svg>